<svg width="26px" height="26px" viewBox="911 40 26 26" version="1.1" xmlns="http://www.w3.org/2000/svg" xmlns:xlink="http://www.w3.org/1999/xlink">
    <!-- Generator: Sketch 40.3 (33839) - http://www.bohemiancoding.com/sketch -->
    <desc>Created with Sketch.</desc>
    <defs></defs>
    <g id="1472816630_Facebook_Messenger" stroke="none" stroke-width="1" fill="none" fill-rule="evenodd" transform="translate(911.000000, 40.000000)">
        <g id="_x34__stroke">
            <g id="Facebook_Messenger_1_">
                <rect id="Rectangle-path" x="0" y="0" width="26" height="26"></rect>
                <path d="M14.291875,16.2097812 L10.9813438,12.6790625 L4.52176563,16.2097812 L11.6272813,8.66653125 L15.0186563,12.1974531 L21.3975938,8.66653125 L14.291875,16.2097812 L14.291875,16.2097812 Z M13,0 C5.82034375,0 0,5.38910937 0,12.0369844 C0,15.8250625 1.89048437,19.2038437 4.84473437,21.4103906 L4.84473437,26 L9.27103125,23.570625 C10.4524062,23.8974531 11.7038594,24.0739687 13,24.0739687 C20.1796563,24.0739687 26,18.6848594 26,12.0369844 C26,5.38910937 20.1796563,0 13,0 L13,0 Z" id="Facebook_Messenger" fill="#007FFF"></path>
            </g>
        </g>
    </g>
</svg>