
<svg width="25px" height="26px" viewBox="0 0 25 26" version="1.1" xmlns="http://www.w3.org/2000/svg" xmlns:xlink="http://www.w3.org/1999/xlink">
    <!-- Generator: Sketch 40.3 (33839) - http://www.bohemiancoding.com/sketch -->
    <desc>Created with Sketch.</desc>
    <defs></defs>
    <g id="38-instagram" stroke="none" stroke-width="1" fill="none" fill-rule="evenodd">
        <path d="M20.207,0.58104 L5,0.58104 C2.3585,0.58104 0.2095,2.75818667 0.2095,5.43490667 L0.2095,10.5623733 L0.2095,20.8451733 C0.2095,23.5218933 2.3585,25.69904 5,25.69904 L20.2075,25.69904 C22.849,25.69904 24.9975,23.5218933 24.9975,20.8451733 L24.9975,10.5618667 L24.9975,5.4344 C24.997,2.75768 22.8485,0.58104 20.207,0.58104 L20.207,0.58104 Z M21.581,3.47562667 L22.129,3.4736 L22.129,4.02637333 L22.129,7.73112 L17.9415,7.7448 L17.927,3.48778667 L21.581,3.47562667 L21.581,3.47562667 Z M9.0655,10.5618667 C9.8595,9.44872 11.1475,8.71861333 12.6035,8.71861333 C14.0595,8.71861333 15.3475,9.44872 16.1405,10.5618667 C16.657,11.2884267 16.9665,12.17712 16.9665,13.1397867 C16.9665,15.57736 15.0075,17.5604533 12.603,17.5604533 C10.197,17.5604533 8.24,15.57736 8.24,13.1397867 C8.2405,12.17712 8.549,11.2884267 9.0655,10.5618667 L9.0655,10.5618667 Z M22.582,20.8446667 C22.582,22.17264 21.5165,23.2513333 20.207,23.2513333 L5,23.2513333 C3.69,23.2513333 2.6245,22.17264 2.6245,20.8446667 L2.6245,10.5618667 L6.3245,10.5618667 C6.005,11.3583467 5.8255,12.2282933 5.8255,13.1397867 C5.8255,16.9261067 8.8655,20.0086667 12.6035,20.0086667 C16.341,20.0086667 19.381,16.9261067 19.381,13.1397867 C19.381,12.2282933 19.2005,11.3583467 18.881,10.5618667 L22.582,10.5618667 L22.582,20.8446667 L22.582,20.8446667 Z" id="Shape" fill="#1E5C83"></path>
    </g>
</svg>