<svg width="21px" height="26px" viewBox="3 1 21 26" version="1.1" xmlns="http://www.w3.org/2000/svg" xmlns:xlink="http://www.w3.org/1999/xlink">
    <!-- Generator: Sketch 40.2 (33826) - http://www.bohemiancoding.com/sketch -->
    <desc>Created with Sketch.</desc>
    <defs></defs>
    <g id="1473880900_18_job_task_timeline_period_completion_manage_discussion" stroke="none" stroke-width="1" fill="none" fill-rule="evenodd" transform="translate(4.000000, 2.000000)">
        <g id="layer1" transform="translate(0.000000, 0.102006)">
            <g id="g6828" transform="translate(-0.000025, -0.000001)">
                <rect id="rect6784" fill="#576D7E" transform="translate(10.150189, 11.829644) rotate(90.000000) translate(-10.150189, -11.829644) " x="9.54915501" y="2.24805071" width="1.20206829" height="19.1631865" rx="0.601034145"></rect>
                <ellipse id="circle6794" fill="#0F80CF" transform="translate(15.129366, 11.811949) rotate(90.000000) translate(-15.129366, -11.811949) " cx="15.1293658" cy="11.8119486" rx="1.80317096" ry="1.79654874"></ellipse>
                <ellipse id="circle6817" fill="#0F80CF" transform="translate(5.512454, 11.811949) rotate(90.000000) translate(-5.512454, -11.811949) " cx="5.51245404" cy="11.8119486" rx="1.80317096" ry="1.79654874"></ellipse>
                <path d="M2.50719003,0.433806635 L8.51771805,0.433806635 C9.18370073,0.433806635 9.71985294,0.967980459 9.71985294,1.63150579 L9.71985294,5.22460326 C9.71985294,5.8881286 9.18370073,6.42230242 8.51771805,6.42230242 L7.01508605,6.42230242 L5.51245404,8.81770073 L4.00982204,6.42230242 L2.50719003,6.42230242 C1.84120735,6.42230242 1.30505515,5.8881286 1.30505515,5.22460326 L1.30505515,1.63150579 C1.30505515,0.967980459 1.84120735,0.433806635 2.50719003,0.433806635 L2.50719003,0.433806635 Z" id="rect6819" fill="#0F80CF"></path>
                <path d="M12.1241013,23.1900906 L18.1346303,23.1900906 C18.8006123,23.1900906 19.3367647,22.6559168 19.3367647,21.9923915 L19.3367647,18.399294 C19.3367647,17.7357687 18.8006123,17.2015948 18.1346303,17.2015948 L16.6319975,17.2015948 L15.1293658,14.8061965 L13.6267342,17.2015948 L12.1241013,17.2015948 C11.4581191,17.2015948 10.9219669,17.7357687 10.9219669,18.399294 L10.9219669,21.9923915 C10.9219669,22.6559168 11.4581191,23.1900906 12.1241013,23.1900906 L12.1241013,23.1900906 Z" id="path6822" fill="#0F80CF"></path>
            </g>
        </g>
    </g>
</svg>