
<svg width="27px" height="21px" viewBox="85 3 27 21" version="1.1" xmlns="http://www.w3.org/2000/svg" xmlns:xlink="http://www.w3.org/1999/xlink">
    <!-- Generator: Sketch 40.3 (33839) - http://www.bohemiancoding.com/sketch -->
    <desc>Created with Sketch.</desc>
    <defs></defs>
    <path d="M111.813531,5.48586458 C110.862856,5.90758298 109.84099,6.19247547 108.768734,6.32064478 C109.863213,5.66455225 110.703936,4.6256314 111.099685,3.38760882 C110.075235,3.99525025 108.940704,4.43634909 107.733044,4.67408251 C106.766089,3.64368905 105.388269,3 103.863416,3 C100.935677,3 98.5618313,5.37358723 98.5618313,8.30132587 C98.5618313,8.71684253 98.6087319,9.12150614 98.6990448,9.50950257 C94.2929661,9.28843634 90.3866444,7.17777709 87.7719645,3.97031409 C87.3156197,4.75328391 87.0541129,5.66390624 87.0541129,6.63551235 C87.0541129,8.47484542 87.990059,10.0975052 89.4125834,11.0481804 C88.5434352,11.0206602 87.7260974,10.7821515 87.0113468,10.3851109 C87.01083,10.4072046 87.01083,10.4294275 87.01083,10.4517796 C87.01083,13.0203341 88.8382763,15.1630357 91.2635448,15.6501307 C90.818699,15.7713231 90.3503384,15.8360538 89.8667318,15.8360538 C89.52499,15.8360538 89.1929384,15.8027194 88.8691558,15.7409604 C89.5439828,17.8470975 91.5016658,19.3799612 93.8216338,19.4225982 C92.0072369,20.8446058 89.7213784,21.6920479 87.2374519,21.6920479 C86.8095318,21.6920479 86.387555,21.6669825 85.9728135,21.6178854 C88.3190097,23.1221952 91.105788,24 94.0995493,24 C103.850883,24 109.183347,15.9217153 109.183347,8.91594426 C109.183347,8.68609223 109.178179,8.45753222 109.167971,8.23000584 C110.20405,7.48269603 111.102786,6.54894638 111.813531,5.48586458 L111.813531,5.48586458 Z" id="Shape-5" stroke="none" fill="#32A7E0" fill-rule="evenodd"></path>
</svg>